<svg width="auto" height="auto" fill="none" xmlns="http://www.w3.org/2000/svg">
<circle cx="48" cy="48" r="48" fill="#363636"/>
<path d="M51.0046 74.7183C50.7419 75.2079 50.2086 75.8164 49.5173 76.2981C48.8165 76.7864 48.1636 77 47.7068 77C47.5428 77 47.4582 76.9735 47.427 76.9608C47.425 76.9548 47.4227 76.9469 47.4203 76.937C47.4139 76.9097 47.4074 76.8666 47.4075 76.8064C47.4076 76.6844 47.4351 76.5031 47.5288 76.276C47.7213 75.8095 48.2132 75.1773 48.9239 74.6539C49.6425 74.1247 50.3175 73.9014 50.7469 73.9014C50.9507 73.9014 51.0627 73.9457 51.1092 73.9707C51.1518 73.9936 51.1613 74.0107 51.1638 74.0152L51.164 74.0155L51.164 74.0156C51.1666 74.0202 51.1886 74.0593 51.1848 74.1597C51.1809 74.2638 51.1469 74.4529 51.0046 74.7183Z" stroke="white" stroke-width="4"/>
<path d="M72.1773 74.7183C71.9146 75.2079 71.3813 75.8164 70.6901 76.2981C69.9893 76.7864 69.3363 77 68.8795 77C68.7156 77 68.6309 76.9735 68.5997 76.9608C68.5977 76.9548 68.5954 76.9469 68.5931 76.937C68.5867 76.9097 68.5801 76.8666 68.5802 76.8064C68.5803 76.6844 68.6078 76.5031 68.7015 76.276C68.8941 75.8095 69.3859 75.1773 70.0966 74.6539C70.8152 74.1247 71.4902 73.9014 71.9196 73.9014C72.1234 73.9014 72.2354 73.9457 72.2819 73.9707C72.3245 73.9936 72.334 74.0107 72.3365 74.0152L72.3367 74.0155L72.3368 74.0156C72.3393 74.0202 72.3613 74.0593 72.3575 74.1597C72.3536 74.2638 72.3197 74.4529 72.1773 74.7183Z" stroke="white" stroke-width="4"/>
<path d="M83 70.8873H43.4234C41.6527 70.8873 40.0927 69.7231 39.5888 68.0256L35.02 52.6338M13 25L24.2274 25.6081C25.9159 25.6995 27.3645 26.8429 27.8457 28.464L29.6018 34.3803M29.6018 34.3803H75.2222M29.6018 34.3803L35.02 52.6338M35.02 52.6338H79.1111" stroke="white" stroke-width="4"/>
<path d="M101 48H122" stroke="#363636" stroke-width="7"/>
<path d="M153.531 58.0938C153.531 57.2812 153.406 56.5521 153.156 55.9062C152.927 55.2396 152.49 54.6354 151.844 54.0938C151.198 53.5312 150.292 52.9792 149.125 52.4375C147.958 51.8958 146.448 51.3333 144.594 50.75C142.531 50.0833 140.573 49.3333 138.719 48.5C136.885 47.6667 135.26 46.6979 133.844 45.5938C132.448 44.4688 131.344 43.1667 130.531 41.6875C129.74 40.2083 129.344 38.4896 129.344 36.5312C129.344 34.6354 129.76 32.9167 130.594 31.375C131.427 29.8125 132.594 28.4792 134.094 27.375C135.594 26.25 137.365 25.3854 139.406 24.7812C141.469 24.1771 143.729 23.875 146.188 23.875C149.542 23.875 152.469 24.4792 154.969 25.6875C157.469 26.8958 159.406 28.5521 160.781 30.6562C162.177 32.7604 162.875 35.1667 162.875 37.875H153.562C153.562 36.5417 153.281 35.375 152.719 34.375C152.177 33.3542 151.344 32.5521 150.219 31.9688C149.115 31.3854 147.719 31.0938 146.031 31.0938C144.406 31.0938 143.052 31.3438 141.969 31.8438C140.885 32.3229 140.073 32.9792 139.531 33.8125C138.99 34.625 138.719 35.5417 138.719 36.5625C138.719 37.3333 138.906 38.0312 139.281 38.6562C139.677 39.2812 140.26 39.8646 141.031 40.4062C141.802 40.9479 142.75 41.4583 143.875 41.9375C145 42.4167 146.302 42.8854 147.781 43.3438C150.26 44.0938 152.438 44.9375 154.312 45.875C156.208 46.8125 157.792 47.8646 159.062 49.0312C160.333 50.1979 161.292 51.5208 161.938 53C162.583 54.4792 162.906 56.1562 162.906 58.0312C162.906 60.0104 162.521 61.7812 161.75 63.3438C160.979 64.9062 159.865 66.2292 158.406 67.3125C156.948 68.3958 155.208 69.2188 153.188 69.7812C151.167 70.3438 148.906 70.625 146.406 70.625C144.156 70.625 141.938 70.3333 139.75 69.75C137.562 69.1458 135.573 68.2396 133.781 67.0312C132.01 65.8229 130.594 64.2812 129.531 62.4062C128.469 60.5312 127.938 58.3125 127.938 55.75H137.344C137.344 57.1667 137.562 58.3646 138 59.3438C138.438 60.3229 139.052 61.1146 139.844 61.7188C140.656 62.3229 141.615 62.7604 142.719 63.0312C143.844 63.3021 145.073 63.4375 146.406 63.4375C148.031 63.4375 149.365 63.2083 150.406 62.75C151.469 62.2917 152.25 61.6562 152.75 60.8438C153.271 60.0312 153.531 59.1146 153.531 58.0938ZM177.5 22V70H168.5V22H177.5ZM176.219 51.9062H173.75C173.771 49.5521 174.083 47.3854 174.688 45.4062C175.292 43.4062 176.156 41.6771 177.281 40.2188C178.406 38.7396 179.75 37.5938 181.312 36.7812C182.896 35.9688 184.646 35.5625 186.562 35.5625C188.229 35.5625 189.74 35.8021 191.094 36.2812C192.469 36.7396 193.646 37.4896 194.625 38.5312C195.625 39.5521 196.396 40.8958 196.938 42.5625C197.479 44.2292 197.75 46.25 197.75 48.625V70H188.688V48.5625C188.688 47.0625 188.469 45.8854 188.031 45.0312C187.615 44.1562 187 43.5417 186.188 43.1875C185.396 42.8125 184.417 42.625 183.25 42.625C181.958 42.625 180.854 42.8646 179.938 43.3438C179.042 43.8229 178.323 44.4896 177.781 45.3438C177.24 46.1771 176.844 47.1562 176.594 48.2812C176.344 49.4062 176.219 50.6146 176.219 51.9062ZM203.156 53.4375V52.7812C203.156 50.3021 203.51 48.0208 204.219 45.9375C204.927 43.8333 205.958 42.0104 207.312 40.4688C208.667 38.9271 210.333 37.7292 212.312 36.875C214.292 36 216.562 35.5625 219.125 35.5625C221.688 35.5625 223.969 36 225.969 36.875C227.969 37.7292 229.646 38.9271 231 40.4688C232.375 42.0104 233.417 43.8333 234.125 45.9375C234.833 48.0208 235.188 50.3021 235.188 52.7812V53.4375C235.188 55.8958 234.833 58.1771 234.125 60.2812C233.417 62.3646 232.375 64.1875 231 65.75C229.646 67.2917 227.979 68.4896 226 69.3438C224.021 70.1979 221.75 70.625 219.188 70.625C216.625 70.625 214.344 70.1979 212.344 69.3438C210.365 68.4896 208.688 67.2917 207.312 65.75C205.958 64.1875 204.927 62.3646 204.219 60.2812C203.51 58.1771 203.156 55.8958 203.156 53.4375ZM212.156 52.7812V53.4375C212.156 54.8542 212.281 56.1771 212.531 57.4062C212.781 58.6354 213.177 59.7188 213.719 60.6562C214.281 61.5729 215.01 62.2917 215.906 62.8125C216.802 63.3333 217.896 63.5938 219.188 63.5938C220.438 63.5938 221.51 63.3333 222.406 62.8125C223.302 62.2917 224.021 61.5729 224.562 60.6562C225.104 59.7188 225.5 58.6354 225.75 57.4062C226.021 56.1771 226.156 54.8542 226.156 53.4375V52.7812C226.156 51.4062 226.021 50.1146 225.75 48.9062C225.5 47.6771 225.094 46.5938 224.531 45.6562C223.99 44.6979 223.271 43.9479 222.375 43.4062C221.479 42.8646 220.396 42.5938 219.125 42.5938C217.854 42.5938 216.771 42.8646 215.875 43.4062C215 43.9479 214.281 44.6979 213.719 45.6562C213.177 46.5938 212.781 47.6771 212.531 48.9062C212.281 50.1146 212.156 51.4062 212.156 52.7812ZM249.719 42.6875V83H240.719V36.1875H249.062L249.719 42.6875ZM271.125 52.7188V53.375C271.125 55.8333 270.833 58.1146 270.25 60.2188C269.688 62.3229 268.854 64.1562 267.75 65.7188C266.646 67.2604 265.271 68.4688 263.625 69.3438C262 70.1979 260.125 70.625 258 70.625C255.938 70.625 254.146 70.2083 252.625 69.375C251.104 68.5417 249.823 67.375 248.781 65.875C247.76 64.3542 246.938 62.5938 246.312 60.5938C245.688 58.5938 245.208 56.4479 244.875 54.1562V52.4375C245.208 49.9792 245.688 47.7292 246.312 45.6875C246.938 43.625 247.76 41.8438 248.781 40.3438C249.823 38.8229 251.094 37.6458 252.594 36.8125C254.115 35.9792 255.896 35.5625 257.938 35.5625C260.083 35.5625 261.969 35.9688 263.594 36.7812C265.24 37.5938 266.615 38.7604 267.719 40.2812C268.844 41.8021 269.688 43.6146 270.25 45.7188C270.833 47.8229 271.125 50.1562 271.125 52.7188ZM262.094 53.375V52.7188C262.094 51.2812 261.969 49.9583 261.719 48.75C261.49 47.5208 261.115 46.4479 260.594 45.5312C260.094 44.6146 259.427 43.9062 258.594 43.4062C257.781 42.8854 256.792 42.625 255.625 42.625C254.396 42.625 253.344 42.8229 252.469 43.2188C251.615 43.6146 250.917 44.1875 250.375 44.9375C249.833 45.6875 249.427 46.5833 249.156 47.625C248.885 48.6667 248.719 49.8438 248.656 51.1562V55.5C248.76 57.0417 249.052 58.4271 249.531 59.6562C250.01 60.8646 250.75 61.8229 251.75 62.5312C252.75 63.2396 254.062 63.5938 255.688 63.5938C256.875 63.5938 257.875 63.3333 258.688 62.8125C259.5 62.2708 260.156 61.5312 260.656 60.5938C261.177 59.6562 261.542 58.5729 261.75 57.3438C261.979 56.1146 262.094 54.7917 262.094 53.375Z" fill="#363636"/>
</svg>
